<svg xmlns="http://www.w3.org/2000/svg" xmlns:xlink="http://www.w3.org/1999/xlink" width="198" zoomAndPan="magnify" viewBox="0 0 148.5 30.000001" height="40" preserveAspectRatio="xMidYMid meet" version="1.0"><defs><g/><clipPath id="cbf37dbb3d"><path d="M 2.152344 0 L 145.863281 0 L 145.863281 29.03125 L 2.152344 29.03125 Z M 2.152344 0 " clip-rule="nonzero"/></clipPath><clipPath id="b454675054"><path d="M 5.878906 3.605469 L 29.183594 3.605469 L 29.183594 26.910156 L 5.878906 26.910156 Z M 5.878906 3.605469 " clip-rule="nonzero"/></clipPath></defs><g clip-path="url(#cbf37dbb3d)"><path fill="#ffffff" d="M 2.152344 0 L 146.347656 0 L 146.347656 36.414062 L 2.152344 36.414062 Z M 2.152344 0 " fill-opacity="1" fill-rule="nonzero"/><path fill="#ffffff" d="M 2.152344 0 L 146.347656 0 L 146.347656 29.128906 L 2.152344 29.128906 Z M 2.152344 0 " fill-opacity="1" fill-rule="nonzero"/><path fill="#ffffff" d="M 2.152344 0 L 146.347656 0 L 146.347656 29.128906 L 2.152344 29.128906 Z M 2.152344 0 " fill-opacity="1" fill-rule="nonzero"/><path fill="#7588df" d="M 2.160156 0 L 146.339844 0 L 146.339844 29.128906 L 2.160156 29.128906 L 2.160156 0 " fill-opacity="1" fill-rule="nonzero"/></g><g clip-path="url(#b454675054)"><path fill="#7289da" d="M 9.375 3.605469 L 25.6875 3.605469 C 26.152344 3.605469 26.597656 3.695312 27.023438 3.871094 C 27.453125 4.050781 27.832031 4.300781 28.160156 4.628906 C 28.488281 4.957031 28.738281 5.335938 28.917969 5.765625 C 29.09375 6.191406 29.183594 6.636719 29.183594 7.101562 L 29.183594 23.414062 C 29.183594 23.878906 29.09375 24.324219 28.917969 24.753906 C 28.738281 25.179688 28.488281 25.558594 28.160156 25.886719 C 27.832031 26.214844 27.453125 26.46875 27.023438 26.644531 C 26.597656 26.820312 26.152344 26.910156 25.6875 26.910156 L 9.375 26.910156 C 8.910156 26.910156 8.464844 26.820312 8.035156 26.644531 C 7.609375 26.46875 7.230469 26.214844 6.902344 25.886719 C 6.574219 25.558594 6.324219 25.179688 6.144531 24.753906 C 5.96875 24.324219 5.878906 23.878906 5.878906 23.414062 L 5.878906 7.101562 C 5.878906 6.636719 5.96875 6.191406 6.144531 5.765625 C 6.324219 5.335938 6.574219 4.957031 6.902344 4.628906 C 7.230469 4.300781 7.609375 4.050781 8.035156 3.871094 C 8.464844 3.695312 8.910156 3.605469 9.375 3.605469 Z M 9.375 3.605469 " fill-opacity="1" fill-rule="nonzero"/></g><path fill="#ffffff" d="M 21.628906 21.449219 L 20.671875 20.3125 C 22.539062 19.808594 23.265625 18.535156 23.265625 18.535156 C 20.898438 20.765625 14.4375 20.855469 11.933594 18.535156 C 11.933594 18.535156 12.570312 19.71875 14.480469 20.3125 L 13.433594 21.449219 C 10.25 21.402344 9.019531 19.265625 9.019531 19.265625 C 9.019531 14.53125 11.113281 10.753906 11.113281 10.753906 C 13.253906 9.25 15.210938 9.25 15.210938 9.25 L 15.347656 9.433594 C 12.707031 10.160156 11.570312 11.34375 11.570312 11.34375 C 14.664062 9.25 21.035156 9.433594 23.539062 11.34375 C 23.585938 11.296875 22.035156 10.070312 19.625 9.433594 L 19.851562 9.25 C 19.851562 9.25 21.808594 9.25 23.949219 10.753906 C 26.085938 12.253906 26.042969 14.53125 26.042969 19.265625 C 26.042969 19.265625 24.8125 21.402344 21.628906 21.449219 Z M 21.628906 21.449219 " fill-opacity="1" fill-rule="nonzero"/><path fill="#7289da" d="M 16.300781 16.304688 C 16.300781 16.515625 16.265625 16.71875 16.1875 16.914062 C 16.113281 17.109375 16.003906 17.28125 15.863281 17.433594 C 15.722656 17.582031 15.558594 17.695312 15.375 17.777344 C 15.191406 17.859375 15 17.898438 14.800781 17.898438 C 14.601562 17.898438 14.410156 17.859375 14.226562 17.777344 C 14.042969 17.695312 13.878906 17.582031 13.738281 17.433594 C 13.597656 17.28125 13.488281 17.109375 13.414062 16.914062 C 13.335938 16.71875 13.296875 16.515625 13.296875 16.304688 C 13.296875 16.09375 13.335938 15.890625 13.414062 15.695312 C 13.488281 15.5 13.597656 15.328125 13.738281 15.179688 C 13.878906 15.03125 14.042969 14.914062 14.226562 14.832031 C 14.410156 14.753906 14.601562 14.710938 14.800781 14.710938 C 15 14.710938 15.191406 14.753906 15.375 14.832031 C 15.558594 14.914062 15.722656 15.03125 15.863281 15.179688 C 16.003906 15.328125 16.113281 15.5 16.1875 15.695312 C 16.265625 15.890625 16.300781 16.09375 16.300781 16.304688 Z M 16.300781 16.304688 " fill-opacity="1" fill-rule="nonzero"/><path fill="#7289da" d="M 21.582031 16.304688 C 21.582031 16.515625 21.542969 16.71875 21.46875 16.914062 C 21.390625 17.109375 21.28125 17.28125 21.140625 17.433594 C 21 17.582031 20.839844 17.695312 20.65625 17.777344 C 20.46875 17.859375 20.277344 17.898438 20.078125 17.898438 C 19.878906 17.898438 19.6875 17.859375 19.503906 17.777344 C 19.320312 17.695312 19.160156 17.582031 19.019531 17.433594 C 18.875 17.28125 18.769531 17.109375 18.691406 16.914062 C 18.617188 16.71875 18.578125 16.515625 18.578125 16.304688 C 18.578125 16.09375 18.617188 15.890625 18.691406 15.695312 C 18.769531 15.5 18.875 15.328125 19.019531 15.179688 C 19.160156 15.03125 19.320312 14.914062 19.503906 14.832031 C 19.6875 14.753906 19.878906 14.710938 20.078125 14.710938 C 20.277344 14.710938 20.46875 14.753906 20.65625 14.832031 C 20.839844 14.914062 21 15.03125 21.140625 15.179688 C 21.28125 15.328125 21.390625 15.5 21.46875 15.695312 C 21.542969 15.890625 21.582031 16.09375 21.582031 16.304688 Z M 21.582031 16.304688 " fill-opacity="1" fill-rule="nonzero"/><g fill="#ffffff" fill-opacity="1"><g transform="translate(32.70852, 20.73098)"><g><path d="M 3.875 -3.734375 L 3.875 0 L 1.109375 0 L 1.109375 -10.265625 L 4.46875 -10.265625 C 7.257812 -10.265625 8.65625 -9.253906 8.65625 -7.234375 C 8.65625 -6.046875 8.070312 -5.125 6.90625 -4.46875 L 9.90625 0 L 6.765625 0 L 4.578125 -3.734375 Z M 3.875 -5.8125 L 4.40625 -5.8125 C 5.375 -5.8125 5.859375 -6.242188 5.859375 -7.109375 C 5.859375 -7.804688 5.378906 -8.15625 4.421875 -8.15625 L 3.875 -8.15625 Z M 3.875 -5.8125 "/></g></g></g><g fill="#ffffff" fill-opacity="1"><g transform="translate(43.281764, 20.73098)"><g><path d="M 1.109375 0 L 1.109375 -10.265625 L 3.890625 -10.265625 L 3.890625 0 Z M 1.109375 0 "/></g></g></g><g fill="#ffffff" fill-opacity="1"><g transform="translate(49.132655, 20.73098)"><g><path d="M 5.671875 -8.140625 C 5.015625 -8.140625 4.5 -7.867188 4.125 -7.328125 C 3.757812 -6.785156 3.578125 -6.039062 3.578125 -5.09375 C 3.578125 -3.113281 4.328125 -2.125 5.828125 -2.125 C 6.285156 -2.125 6.726562 -2.1875 7.15625 -2.3125 C 7.582031 -2.4375 8.007812 -2.585938 8.4375 -2.765625 L 8.4375 -0.421875 C 7.582031 -0.046875 6.613281 0.140625 5.53125 0.140625 C 3.976562 0.140625 2.789062 -0.304688 1.96875 -1.203125 C 1.144531 -2.109375 0.734375 -3.410156 0.734375 -5.109375 C 0.734375 -6.171875 0.929688 -7.101562 1.328125 -7.90625 C 1.734375 -8.707031 2.3125 -9.320312 3.0625 -9.75 C 3.8125 -10.1875 4.691406 -10.40625 5.703125 -10.40625 C 6.816406 -10.40625 7.878906 -10.164062 8.890625 -9.6875 L 8.03125 -7.5 C 7.65625 -7.675781 7.273438 -7.828125 6.890625 -7.953125 C 6.515625 -8.078125 6.109375 -8.140625 5.671875 -8.140625 Z M 5.671875 -8.140625 "/></g></g></g><g fill="#ffffff" fill-opacity="1"><g transform="translate(59.305937, 20.73098)"><g><path d="M 7.40625 0 L 6.90625 -1.921875 L 3.5625 -1.921875 L 3.046875 0 L 0 0 L 3.34375 -10.296875 L 7.046875 -10.296875 L 10.4375 0 Z M 6.328125 -4.203125 L 5.875 -5.875 C 5.78125 -6.25 5.65625 -6.734375 5.5 -7.328125 C 5.351562 -7.921875 5.257812 -8.347656 5.21875 -8.609375 C 5.175781 -8.367188 5.09375 -7.972656 4.96875 -7.421875 C 4.84375 -6.878906 4.566406 -5.804688 4.140625 -4.203125 Z M 6.328125 -4.203125 "/></g></g></g><g fill="#ffffff" fill-opacity="1"><g transform="translate(70.587885, 20.73098)"><g><path d="M 3.875 -3.734375 L 3.875 0 L 1.109375 0 L 1.109375 -10.265625 L 4.46875 -10.265625 C 7.257812 -10.265625 8.65625 -9.253906 8.65625 -7.234375 C 8.65625 -6.046875 8.070312 -5.125 6.90625 -4.46875 L 9.90625 0 L 6.765625 0 L 4.578125 -3.734375 Z M 3.875 -5.8125 L 4.40625 -5.8125 C 5.375 -5.8125 5.859375 -6.242188 5.859375 -7.109375 C 5.859375 -7.804688 5.378906 -8.15625 4.421875 -8.15625 L 3.875 -8.15625 Z M 3.875 -5.8125 "/></g></g></g><g fill="#ffffff" fill-opacity="1"><g transform="translate(81.16113, 20.73098)"><g><path d="M 5.640625 0 L 2.859375 0 L 2.859375 -8 L 0.359375 -8 L 0.359375 -10.265625 L 8.140625 -10.265625 L 8.140625 -8 L 5.640625 -8 Z M 5.640625 0 "/></g></g></g><g fill="#ffffff" fill-opacity="1"><g transform="translate(90.499405, 20.73098)"><g><path d="M 7.3125 -5.703125 L 7.109375 -4.53125 L 8.8125 -4.53125 L 8.8125 -2.75 L 6.765625 -2.75 L 6.25 0 L 4.375 0 L 4.890625 -2.75 L 3.703125 -2.75 L 3.203125 0 L 1.328125 0 L 1.84375 -2.75 L 0.265625 -2.75 L 0.265625 -4.53125 L 2.1875 -4.53125 L 2.40625 -5.703125 L 0.734375 -5.703125 L 0.734375 -7.53125 L 2.75 -7.53125 L 3.25 -10.265625 L 5.125 -10.265625 L 4.609375 -7.53125 L 5.78125 -7.53125 L 6.28125 -10.265625 L 8.15625 -10.265625 L 7.65625 -7.53125 L 9.265625 -7.53125 L 9.265625 -5.703125 Z M 4.0625 -4.53125 L 5.21875 -4.53125 L 5.4375 -5.703125 L 4.265625 -5.703125 Z M 4.0625 -4.53125 "/></g></g></g><g fill="#ffffff" fill-opacity="1"><g transform="translate(100.862143, 20.73098)"><g><path d="M 1.46875 0 L 4.984375 -7.953125 L 0.546875 -7.953125 L 0.546875 -10.25 L 7.953125 -10.25 L 7.953125 -8.609375 L 4.34375 0 Z M 1.46875 0 "/></g></g></g><g fill="#ffffff" fill-opacity="1"><g transform="translate(110.13025, 20.73098)"><g><path d="M 4.234375 -10.40625 C 5.316406 -10.40625 6.160156 -10.1875 6.765625 -9.75 C 7.367188 -9.320312 7.671875 -8.707031 7.671875 -7.90625 C 7.671875 -7.363281 7.523438 -6.882812 7.234375 -6.46875 C 6.953125 -6.0625 6.503906 -5.707031 5.890625 -5.40625 C 6.648438 -4.976562 7.1875 -4.546875 7.5 -4.109375 C 7.8125 -3.679688 7.96875 -3.222656 7.96875 -2.734375 C 7.96875 -1.816406 7.632812 -1.109375 6.96875 -0.609375 C 6.3125 -0.109375 5.394531 0.140625 4.21875 0.140625 C 3.007812 0.140625 2.082031 -0.101562 1.4375 -0.59375 C 0.800781 -1.082031 0.484375 -1.785156 0.484375 -2.703125 C 0.484375 -3.296875 0.625 -3.800781 0.90625 -4.21875 C 1.1875 -4.632812 1.664062 -5.015625 2.34375 -5.359375 C 1.800781 -5.722656 1.40625 -6.113281 1.15625 -6.53125 C 0.90625 -6.957031 0.78125 -7.421875 0.78125 -7.921875 C 0.78125 -8.703125 1.085938 -9.3125 1.703125 -9.75 C 2.316406 -10.1875 3.160156 -10.40625 4.234375 -10.40625 Z M 3.015625 -2.8125 C 3.015625 -2.519531 3.117188 -2.285156 3.328125 -2.109375 C 3.535156 -1.941406 3.820312 -1.859375 4.1875 -1.859375 C 5.007812 -1.859375 5.421875 -2.160156 5.421875 -2.765625 C 5.421875 -2.992188 5.328125 -3.21875 5.140625 -3.4375 C 4.960938 -3.65625 4.644531 -3.90625 4.1875 -4.1875 C 3.769531 -3.96875 3.46875 -3.742188 3.28125 -3.515625 C 3.101562 -3.296875 3.015625 -3.0625 3.015625 -2.8125 Z M 4.21875 -8.40625 C 3.988281 -8.40625 3.789062 -8.335938 3.625 -8.203125 C 3.457031 -8.066406 3.375 -7.890625 3.375 -7.671875 C 3.375 -7.265625 3.648438 -6.90625 4.203125 -6.59375 C 4.535156 -6.789062 4.757812 -6.96875 4.875 -7.125 C 5 -7.28125 5.0625 -7.460938 5.0625 -7.671875 C 5.0625 -7.890625 4.976562 -8.066406 4.8125 -8.203125 C 4.644531 -8.335938 4.445312 -8.40625 4.21875 -8.40625 Z M 4.21875 -8.40625 "/></g></g></g><g fill="#ffffff" fill-opacity="1"><g transform="translate(119.398356, 20.73098)"><g><path d="M 8.203125 -1.984375 L 7.078125 -1.984375 L 7.078125 0 L 4.34375 0 L 4.34375 -1.984375 L 0.25 -1.984375 L 0.25 -4.015625 L 4.515625 -10.265625 L 7.078125 -10.265625 L 7.078125 -4.0625 L 8.203125 -4.0625 Z M 4.34375 -4.0625 L 4.34375 -5.25 C 4.34375 -5.476562 4.347656 -5.78125 4.359375 -6.15625 C 4.378906 -6.539062 4.394531 -6.742188 4.40625 -6.765625 L 4.328125 -6.765625 C 4.160156 -6.398438 3.976562 -6.0625 3.78125 -5.75 L 2.640625 -4.0625 Z M 4.34375 -4.0625 "/></g></g></g><g fill="#ffffff" fill-opacity="1"><g transform="translate(128.666463, 20.73098)"><g><path d="M 4.234375 -10.40625 C 5.316406 -10.40625 6.160156 -10.1875 6.765625 -9.75 C 7.367188 -9.320312 7.671875 -8.707031 7.671875 -7.90625 C 7.671875 -7.363281 7.523438 -6.882812 7.234375 -6.46875 C 6.953125 -6.0625 6.503906 -5.707031 5.890625 -5.40625 C 6.648438 -4.976562 7.1875 -4.546875 7.5 -4.109375 C 7.8125 -3.679688 7.96875 -3.222656 7.96875 -2.734375 C 7.96875 -1.816406 7.632812 -1.109375 6.96875 -0.609375 C 6.3125 -0.109375 5.394531 0.140625 4.21875 0.140625 C 3.007812 0.140625 2.082031 -0.101562 1.4375 -0.59375 C 0.800781 -1.082031 0.484375 -1.785156 0.484375 -2.703125 C 0.484375 -3.296875 0.625 -3.800781 0.90625 -4.21875 C 1.1875 -4.632812 1.664062 -5.015625 2.34375 -5.359375 C 1.800781 -5.722656 1.40625 -6.113281 1.15625 -6.53125 C 0.90625 -6.957031 0.78125 -7.421875 0.78125 -7.921875 C 0.78125 -8.703125 1.085938 -9.3125 1.703125 -9.75 C 2.316406 -10.1875 3.160156 -10.40625 4.234375 -10.40625 Z M 3.015625 -2.8125 C 3.015625 -2.519531 3.117188 -2.285156 3.328125 -2.109375 C 3.535156 -1.941406 3.820312 -1.859375 4.1875 -1.859375 C 5.007812 -1.859375 5.421875 -2.160156 5.421875 -2.765625 C 5.421875 -2.992188 5.328125 -3.21875 5.140625 -3.4375 C 4.960938 -3.65625 4.644531 -3.90625 4.1875 -4.1875 C 3.769531 -3.96875 3.46875 -3.742188 3.28125 -3.515625 C 3.101562 -3.296875 3.015625 -3.0625 3.015625 -2.8125 Z M 4.21875 -8.40625 C 3.988281 -8.40625 3.789062 -8.335938 3.625 -8.203125 C 3.457031 -8.066406 3.375 -7.890625 3.375 -7.671875 C 3.375 -7.265625 3.648438 -6.90625 4.203125 -6.59375 C 4.535156 -6.789062 4.757812 -6.96875 4.875 -7.125 C 5 -7.28125 5.0625 -7.460938 5.0625 -7.671875 C 5.0625 -7.890625 4.976562 -8.066406 4.8125 -8.203125 C 4.644531 -8.335938 4.445312 -8.40625 4.21875 -8.40625 Z M 4.21875 -8.40625 "/></g></g></g></svg>