<svg xmlns="http://www.w3.org/2000/svg" xmlns:xlink="http://www.w3.org/1999/xlink" width="188" zoomAndPan="magnify" viewBox="0 0 141 30.000001" height="40" preserveAspectRatio="xMidYMid meet" version="1.0"><defs><g/><clipPath id="a370867338"><path d="M 2.273438 0 L 138.726562 0 L 138.726562 29.03125 L 2.273438 29.03125 Z M 2.273438 0 " clip-rule="nonzero"/></clipPath><clipPath id="dbee9f0826"><path d="M 7.214844 1.457031 L 33.34375 1.457031 L 33.34375 27.585938 L 7.214844 27.585938 Z M 7.214844 1.457031 " clip-rule="nonzero"/></clipPath></defs><g clip-path="url(#a370867338)"><path fill="#7588df" d="M 2.273438 0 L 138.726562 0 L 138.726562 29.03125 L 2.273438 29.03125 L 2.273438 0 " fill-opacity="1" fill-rule="nonzero"/></g><g clip-path="url(#dbee9f0826)"><path fill="#7289da" d="M 11.132812 1.457031 L 29.421875 1.457031 C 29.679688 1.457031 29.933594 1.480469 30.1875 1.53125 C 30.441406 1.582031 30.683594 1.65625 30.921875 1.753906 C 31.160156 1.851562 31.386719 1.972656 31.601562 2.117188 C 31.816406 2.257812 32.011719 2.421875 32.195312 2.601562 C 32.375 2.785156 32.539062 2.984375 32.683594 3.195312 C 32.824219 3.410156 32.945312 3.636719 33.042969 3.875 C 33.140625 4.113281 33.21875 4.359375 33.265625 4.609375 C 33.316406 4.863281 33.34375 5.117188 33.34375 5.375 L 33.34375 23.664062 C 33.34375 23.921875 33.316406 24.175781 33.265625 24.429688 C 33.21875 24.683594 33.140625 24.925781 33.042969 25.164062 C 32.945312 25.402344 32.824219 25.628906 32.683594 25.84375 C 32.539062 26.054688 32.375 26.253906 32.195312 26.4375 C 32.011719 26.617188 31.816406 26.78125 31.601562 26.921875 C 31.386719 27.066406 31.160156 27.1875 30.921875 27.285156 C 30.683594 27.382812 30.441406 27.457031 30.1875 27.507812 C 29.933594 27.558594 29.679688 27.585938 29.421875 27.585938 L 11.132812 27.585938 C 10.875 27.585938 10.621094 27.558594 10.367188 27.507812 C 10.117188 27.457031 9.871094 27.382812 9.632812 27.285156 C 9.394531 27.1875 9.167969 27.066406 8.957031 26.921875 C 8.742188 26.78125 8.542969 26.617188 8.359375 26.4375 C 8.179688 26.253906 8.015625 26.054688 7.875 25.84375 C 7.730469 25.628906 7.609375 25.402344 7.511719 25.164062 C 7.414062 24.925781 7.339844 24.683594 7.289062 24.429688 C 7.238281 24.175781 7.214844 23.921875 7.214844 23.664062 L 7.214844 5.375 C 7.214844 5.117188 7.238281 4.863281 7.289062 4.609375 C 7.339844 4.359375 7.414062 4.113281 7.511719 3.875 C 7.609375 3.636719 7.730469 3.410156 7.875 3.195312 C 8.015625 2.984375 8.179688 2.785156 8.359375 2.601562 C 8.542969 2.421875 8.742188 2.257812 8.957031 2.117188 C 9.167969 1.972656 9.394531 1.851562 9.632812 1.753906 C 9.871094 1.65625 10.117188 1.582031 10.367188 1.53125 C 10.621094 1.480469 10.875 1.457031 11.132812 1.457031 Z M 11.132812 1.457031 " fill-opacity="1" fill-rule="nonzero"/></g><path fill="#ffffff" d="M 24.871094 21.460938 L 23.800781 20.183594 C 25.890625 19.625 26.707031 18.195312 26.707031 18.195312 C 24.054688 20.695312 16.808594 20.796875 14 18.195312 C 14 18.195312 14.714844 19.519531 16.859375 20.183594 L 15.683594 21.460938 C 12.113281 21.410156 10.734375 19.011719 10.734375 19.011719 C 10.734375 13.703125 13.082031 9.46875 13.082031 9.46875 C 15.480469 7.785156 17.675781 7.785156 17.675781 7.785156 L 17.828125 7.988281 C 14.867188 8.804688 13.59375 10.132812 13.59375 10.132812 C 17.0625 7.785156 24.207031 7.988281 27.015625 10.132812 C 27.066406 10.078125 25.332031 8.703125 22.625 7.988281 L 22.878906 7.785156 C 22.878906 7.785156 25.074219 7.785156 27.472656 9.46875 C 29.871094 11.152344 29.820312 13.703125 29.820312 19.011719 C 29.820312 19.011719 28.441406 21.410156 24.871094 21.460938 Z M 24.871094 21.460938 " fill-opacity="1" fill-rule="nonzero"/><path fill="#7289da" d="M 18.898438 15.695312 C 18.898438 15.929688 18.855469 16.160156 18.773438 16.378906 C 18.6875 16.597656 18.566406 16.789062 18.40625 16.957031 C 18.25 17.125 18.066406 17.253906 17.859375 17.34375 C 17.652344 17.433594 17.4375 17.480469 17.214844 17.480469 C 16.992188 17.480469 16.777344 17.433594 16.570312 17.34375 C 16.363281 17.253906 16.183594 17.125 16.023438 16.957031 C 15.867188 16.789062 15.746094 16.597656 15.660156 16.378906 C 15.574219 16.160156 15.53125 15.929688 15.53125 15.695312 C 15.53125 15.457031 15.574219 15.230469 15.660156 15.011719 C 15.746094 14.792969 15.867188 14.597656 16.023438 14.429688 C 16.183594 14.261719 16.363281 14.132812 16.570312 14.042969 C 16.777344 13.953125 16.992188 13.90625 17.214844 13.90625 C 17.4375 13.90625 17.652344 13.953125 17.859375 14.042969 C 18.066406 14.132812 18.25 14.261719 18.40625 14.429688 C 18.566406 14.597656 18.6875 14.792969 18.773438 15.011719 C 18.855469 15.230469 18.898438 15.457031 18.898438 15.695312 Z M 18.898438 15.695312 " fill-opacity="1" fill-rule="nonzero"/><path fill="#7289da" d="M 24.820312 15.695312 C 24.820312 15.929688 24.777344 16.160156 24.691406 16.378906 C 24.605469 16.597656 24.484375 16.789062 24.328125 16.957031 C 24.167969 17.125 23.988281 17.253906 23.78125 17.34375 C 23.574219 17.433594 23.359375 17.480469 23.136719 17.480469 C 22.914062 17.480469 22.699219 17.433594 22.492188 17.34375 C 22.285156 17.253906 22.101562 17.125 21.945312 16.957031 C 21.785156 16.789062 21.664062 16.597656 21.578125 16.378906 C 21.496094 16.160156 21.453125 15.929688 21.453125 15.695312 C 21.453125 15.457031 21.496094 15.230469 21.578125 15.011719 C 21.664062 14.792969 21.785156 14.597656 21.945312 14.429688 C 22.101562 14.261719 22.285156 14.132812 22.492188 14.042969 C 22.699219 13.953125 22.914062 13.90625 23.136719 13.90625 C 23.359375 13.90625 23.574219 13.953125 23.78125 14.042969 C 23.988281 14.132812 24.167969 14.261719 24.328125 14.429688 C 24.484375 14.597656 24.605469 14.792969 24.691406 15.011719 C 24.777344 15.230469 24.820312 15.457031 24.820312 15.695312 Z M 24.820312 15.695312 " fill-opacity="1" fill-rule="nonzero"/><g fill="#ffffff" fill-opacity="1"><g transform="translate(33.944157, 19.565514)"><g><path d="M 3.5625 -3.421875 L 3.5625 0 L 1.015625 0 L 1.015625 -9.40625 L 4.09375 -9.40625 C 6.65625 -9.40625 7.9375 -8.476562 7.9375 -6.625 C 7.9375 -5.53125 7.398438 -4.6875 6.328125 -4.09375 L 9.078125 0 L 6.1875 0 L 4.203125 -3.421875 Z M 3.5625 -5.328125 L 4.03125 -5.328125 C 4.914062 -5.328125 5.359375 -5.722656 5.359375 -6.515625 C 5.359375 -7.160156 4.925781 -7.484375 4.0625 -7.484375 L 3.5625 -7.484375 Z M 3.5625 -5.328125 "/></g></g></g><g fill="#ffffff" fill-opacity="1"><g transform="translate(43.634914, 19.565514)"><g><path d="M 1.015625 0 L 1.015625 -9.40625 L 3.5625 -9.40625 L 3.5625 0 Z M 1.015625 0 "/></g></g></g><g fill="#ffffff" fill-opacity="1"><g transform="translate(48.997464, 19.565514)"><g><path d="M 5.203125 -7.453125 C 4.597656 -7.453125 4.125 -7.203125 3.78125 -6.703125 C 3.445312 -6.210938 3.28125 -5.53125 3.28125 -4.65625 C 3.28125 -2.851562 3.96875 -1.953125 5.34375 -1.953125 C 5.757812 -1.953125 6.160156 -2.007812 6.546875 -2.125 C 6.941406 -2.238281 7.335938 -2.378906 7.734375 -2.546875 L 7.734375 -0.390625 C 6.941406 -0.046875 6.050781 0.125 5.0625 0.125 C 3.644531 0.125 2.554688 -0.285156 1.796875 -1.109375 C 1.046875 -1.929688 0.671875 -3.117188 0.671875 -4.671875 C 0.671875 -5.648438 0.851562 -6.503906 1.21875 -7.234375 C 1.582031 -7.972656 2.109375 -8.539062 2.796875 -8.9375 C 3.484375 -9.332031 4.296875 -9.53125 5.234375 -9.53125 C 6.242188 -9.53125 7.210938 -9.3125 8.140625 -8.875 L 7.359375 -6.875 C 7.015625 -7.039062 6.664062 -7.175781 6.3125 -7.28125 C 5.96875 -7.394531 5.597656 -7.453125 5.203125 -7.453125 Z M 5.203125 -7.453125 "/></g></g></g><g fill="#ffffff" fill-opacity="1"><g transform="translate(58.321642, 19.565514)"><g><path d="M 6.78125 0 L 6.328125 -1.765625 L 3.265625 -1.765625 L 2.796875 0 L 0 0 L 3.0625 -9.4375 L 6.453125 -9.4375 L 9.5625 0 Z M 5.796875 -3.84375 L 5.390625 -5.390625 C 5.296875 -5.734375 5.179688 -6.175781 5.046875 -6.71875 C 4.910156 -7.257812 4.820312 -7.648438 4.78125 -7.890625 C 4.738281 -7.671875 4.660156 -7.3125 4.546875 -6.8125 C 4.429688 -6.3125 4.179688 -5.320312 3.796875 -3.84375 Z M 5.796875 -3.84375 "/></g></g></g><g fill="#ffffff" fill-opacity="1"><g transform="translate(68.661952, 19.565514)"><g><path d="M 3.5625 -3.421875 L 3.5625 0 L 1.015625 0 L 1.015625 -9.40625 L 4.09375 -9.40625 C 6.65625 -9.40625 7.9375 -8.476562 7.9375 -6.625 C 7.9375 -5.53125 7.398438 -4.6875 6.328125 -4.09375 L 9.078125 0 L 6.1875 0 L 4.203125 -3.421875 Z M 3.5625 -5.328125 L 4.03125 -5.328125 C 4.914062 -5.328125 5.359375 -5.722656 5.359375 -6.515625 C 5.359375 -7.160156 4.925781 -7.484375 4.0625 -7.484375 L 3.5625 -7.484375 Z M 3.5625 -5.328125 "/></g></g></g><g fill="#ffffff" fill-opacity="1"><g transform="translate(78.352709, 19.565514)"><g><path d="M 5.171875 0 L 2.625 0 L 2.625 -7.328125 L 0.328125 -7.328125 L 0.328125 -9.40625 L 7.453125 -9.40625 L 7.453125 -7.328125 L 5.171875 -7.328125 Z M 5.171875 0 "/></g></g></g><g fill="#ffffff" fill-opacity="1"><g transform="translate(86.911572, 19.565514)"><g><path d="M 6.703125 -5.234375 L 6.515625 -4.140625 L 8.078125 -4.140625 L 8.078125 -2.515625 L 6.203125 -2.515625 L 5.734375 0 L 4 0 L 4.46875 -2.515625 L 3.390625 -2.515625 L 2.9375 0 L 1.21875 0 L 1.6875 -2.515625 L 0.234375 -2.515625 L 0.234375 -4.140625 L 2 -4.140625 L 2.203125 -5.234375 L 0.671875 -5.234375 L 0.671875 -6.90625 L 2.515625 -6.90625 L 2.984375 -9.40625 L 4.703125 -9.40625 L 4.21875 -6.90625 L 5.296875 -6.90625 L 5.75 -9.40625 L 7.484375 -9.40625 L 7.015625 -6.90625 L 8.484375 -6.90625 L 8.484375 -5.234375 Z M 3.71875 -4.140625 L 4.78125 -4.140625 L 4.984375 -5.234375 L 3.90625 -5.234375 Z M 3.71875 -4.140625 "/></g></g></g><g fill="#ffffff" fill-opacity="1"><g transform="translate(96.409393, 19.565514)"><g><path d="M 1.34375 0 L 4.578125 -7.28125 L 0.5 -7.28125 L 0.5 -9.390625 L 7.28125 -9.390625 L 7.28125 -7.890625 L 3.96875 0 Z M 1.34375 0 "/></g></g></g><g fill="#ffffff" fill-opacity="1"><g transform="translate(104.903944, 19.565514)"><g><path d="M 3.890625 -9.53125 C 4.878906 -9.53125 5.644531 -9.332031 6.1875 -8.9375 C 6.738281 -8.539062 7.015625 -7.972656 7.015625 -7.234375 C 7.015625 -6.742188 6.882812 -6.3125 6.625 -5.9375 C 6.375 -5.5625 5.96875 -5.234375 5.40625 -4.953125 C 6.09375 -4.554688 6.578125 -4.160156 6.859375 -3.765625 C 7.148438 -3.378906 7.296875 -2.957031 7.296875 -2.5 C 7.296875 -1.664062 6.992188 -1.019531 6.390625 -0.5625 C 5.785156 -0.101562 4.941406 0.125 3.859375 0.125 C 2.753906 0.125 1.90625 -0.0976562 1.3125 -0.546875 C 0.726562 -0.992188 0.4375 -1.632812 0.4375 -2.46875 C 0.4375 -3.019531 0.566406 -3.484375 0.828125 -3.859375 C 1.085938 -4.242188 1.523438 -4.59375 2.140625 -4.90625 C 1.648438 -5.25 1.289062 -5.609375 1.0625 -5.984375 C 0.832031 -6.367188 0.71875 -6.789062 0.71875 -7.25 C 0.71875 -7.96875 1 -8.523438 1.5625 -8.921875 C 2.125 -9.328125 2.898438 -9.53125 3.890625 -9.53125 Z M 2.765625 -2.578125 C 2.765625 -2.316406 2.859375 -2.101562 3.046875 -1.9375 C 3.234375 -1.78125 3.492188 -1.703125 3.828125 -1.703125 C 4.585938 -1.703125 4.96875 -1.976562 4.96875 -2.53125 C 4.96875 -2.738281 4.882812 -2.941406 4.71875 -3.140625 C 4.550781 -3.347656 4.253906 -3.578125 3.828125 -3.828125 C 3.453125 -3.628906 3.179688 -3.425781 3.015625 -3.21875 C 2.847656 -3.019531 2.765625 -2.804688 2.765625 -2.578125 Z M 3.875 -7.703125 C 3.65625 -7.703125 3.46875 -7.640625 3.3125 -7.515625 C 3.164062 -7.390625 3.09375 -7.222656 3.09375 -7.015625 C 3.09375 -6.648438 3.34375 -6.328125 3.84375 -6.046875 C 4.144531 -6.222656 4.351562 -6.382812 4.46875 -6.53125 C 4.582031 -6.675781 4.640625 -6.835938 4.640625 -7.015625 C 4.640625 -7.222656 4.5625 -7.390625 4.40625 -7.515625 C 4.257812 -7.640625 4.082031 -7.703125 3.875 -7.703125 Z M 3.875 -7.703125 "/></g></g></g><g fill="#ffffff" fill-opacity="1"><g transform="translate(113.398496, 19.565514)"><g><path d="M 7.515625 -1.8125 L 6.484375 -1.8125 L 6.484375 0 L 3.96875 0 L 3.96875 -1.8125 L 0.21875 -1.8125 L 0.21875 -3.6875 L 4.140625 -9.40625 L 6.484375 -9.40625 L 6.484375 -3.71875 L 7.515625 -3.71875 Z M 3.96875 -3.71875 L 3.96875 -4.8125 C 3.96875 -5.019531 3.972656 -5.296875 3.984375 -5.640625 C 4.003906 -5.992188 4.019531 -6.175781 4.03125 -6.1875 L 3.96875 -6.1875 C 3.820312 -5.863281 3.65625 -5.554688 3.46875 -5.265625 L 2.421875 -3.71875 Z M 3.96875 -3.71875 "/></g></g></g><g fill="#ffffff" fill-opacity="1"><g transform="translate(121.893047, 19.565514)"><g><path d="M 3.890625 -9.53125 C 4.878906 -9.53125 5.644531 -9.332031 6.1875 -8.9375 C 6.738281 -8.539062 7.015625 -7.972656 7.015625 -7.234375 C 7.015625 -6.742188 6.882812 -6.3125 6.625 -5.9375 C 6.375 -5.5625 5.96875 -5.234375 5.40625 -4.953125 C 6.09375 -4.554688 6.578125 -4.160156 6.859375 -3.765625 C 7.148438 -3.378906 7.296875 -2.957031 7.296875 -2.5 C 7.296875 -1.664062 6.992188 -1.019531 6.390625 -0.5625 C 5.785156 -0.101562 4.941406 0.125 3.859375 0.125 C 2.753906 0.125 1.90625 -0.0976562 1.3125 -0.546875 C 0.726562 -0.992188 0.4375 -1.632812 0.4375 -2.46875 C 0.4375 -3.019531 0.566406 -3.484375 0.828125 -3.859375 C 1.085938 -4.242188 1.523438 -4.59375 2.140625 -4.90625 C 1.648438 -5.25 1.289062 -5.609375 1.0625 -5.984375 C 0.832031 -6.367188 0.71875 -6.789062 0.71875 -7.25 C 0.71875 -7.96875 1 -8.523438 1.5625 -8.921875 C 2.125 -9.328125 2.898438 -9.53125 3.890625 -9.53125 Z M 2.765625 -2.578125 C 2.765625 -2.316406 2.859375 -2.101562 3.046875 -1.9375 C 3.234375 -1.78125 3.492188 -1.703125 3.828125 -1.703125 C 4.585938 -1.703125 4.96875 -1.976562 4.96875 -2.53125 C 4.96875 -2.738281 4.882812 -2.941406 4.71875 -3.140625 C 4.550781 -3.347656 4.253906 -3.578125 3.828125 -3.828125 C 3.453125 -3.628906 3.179688 -3.425781 3.015625 -3.21875 C 2.847656 -3.019531 2.765625 -2.804688 2.765625 -2.578125 Z M 3.875 -7.703125 C 3.65625 -7.703125 3.46875 -7.640625 3.3125 -7.515625 C 3.164062 -7.390625 3.09375 -7.222656 3.09375 -7.015625 C 3.09375 -6.648438 3.34375 -6.328125 3.84375 -6.046875 C 4.144531 -6.222656 4.351562 -6.382812 4.46875 -6.53125 C 4.582031 -6.675781 4.640625 -6.835938 4.640625 -7.015625 C 4.640625 -7.222656 4.5625 -7.390625 4.40625 -7.515625 C 4.257812 -7.640625 4.082031 -7.703125 3.875 -7.703125 Z M 3.875 -7.703125 "/></g></g></g></svg>