<svg xmlns="http://www.w3.org/2000/svg" xmlns:xlink="http://www.w3.org/1999/xlink" width="166" zoomAndPan="magnify" viewBox="0 0 124.5 30.000001" height="40" preserveAspectRatio="xMidYMid meet" version="1.0"><defs><g/><clipPath id="ba3eff485d"><path d="M 1.765625 0 L 122.25 0 L 122.25 25.503906 L 1.765625 25.503906 Z M 1.765625 0 " clip-rule="nonzero"/></clipPath><clipPath id="b3929463a5"><path d="M 6.136719 1.289062 L 29.457031 1.289062 L 29.457031 24.605469 L 6.136719 24.605469 Z M 6.136719 1.289062 " clip-rule="nonzero"/></clipPath></defs><g clip-path="url(#ba3eff485d)"><path fill="#7588df" d="M 1.769531 0 L 122.730469 0 L 122.730469 25.503906 L 1.769531 25.503906 L 1.769531 0 " fill-opacity="1" fill-rule="nonzero"/></g><g clip-path="url(#b3929463a5)"><path fill="#7289da" d="M 9.636719 1.289062 L 25.960938 1.289062 C 26.421875 1.289062 26.871094 1.378906 27.296875 1.554688 C 27.726562 1.730469 28.105469 1.984375 28.433594 2.3125 C 28.761719 2.640625 29.015625 3.019531 29.191406 3.449219 C 29.367188 3.875 29.457031 4.320312 29.457031 4.785156 L 29.457031 21.109375 C 29.457031 21.574219 29.367188 22.019531 29.191406 22.449219 C 29.015625 22.875 28.761719 23.253906 28.433594 23.582031 C 28.105469 23.910156 27.726562 24.164062 27.296875 24.339844 C 26.871094 24.519531 26.421875 24.605469 25.960938 24.605469 L 9.636719 24.605469 C 9.171875 24.605469 8.726562 24.519531 8.296875 24.339844 C 7.871094 24.164062 7.492188 23.910156 7.164062 23.582031 C 6.835938 23.253906 6.582031 22.875 6.40625 22.449219 C 6.226562 22.019531 6.136719 21.574219 6.136719 21.109375 L 6.136719 4.785156 C 6.136719 4.320312 6.226562 3.875 6.40625 3.449219 C 6.582031 3.019531 6.835938 2.640625 7.164062 2.3125 C 7.492188 1.984375 7.871094 1.730469 8.296875 1.554688 C 8.726562 1.378906 9.171875 1.289062 9.636719 1.289062 Z M 9.636719 1.289062 " fill-opacity="1" fill-rule="nonzero"/></g><path fill="#ffffff" d="M 21.898438 19.140625 L 20.941406 18.003906 C 22.808594 17.503906 23.535156 16.226562 23.535156 16.226562 C 21.167969 18.457031 14.699219 18.550781 12.195312 16.226562 C 12.195312 16.226562 12.832031 17.410156 14.746094 18.003906 L 13.699219 19.140625 C 10.511719 19.097656 9.28125 16.957031 9.28125 16.957031 C 9.28125 12.21875 11.375 8.4375 11.375 8.4375 C 13.515625 6.9375 15.476562 6.9375 15.476562 6.9375 L 15.613281 7.117188 C 12.96875 7.847656 11.832031 9.03125 11.832031 9.03125 C 14.929688 6.9375 21.304688 7.117188 23.808594 9.03125 C 23.855469 8.984375 22.308594 7.753906 19.894531 7.117188 L 20.121094 6.9375 C 20.121094 6.9375 22.078125 6.9375 24.21875 8.4375 C 26.359375 9.941406 26.316406 12.21875 26.316406 16.957031 C 26.316406 16.957031 25.085938 19.097656 21.898438 19.140625 Z M 21.898438 19.140625 " fill-opacity="1" fill-rule="nonzero"/><path fill="#7289da" d="M 16.566406 13.996094 C 16.566406 14.207031 16.53125 14.410156 16.453125 14.605469 C 16.378906 14.800781 16.269531 14.972656 16.128906 15.121094 C 15.988281 15.273438 15.824219 15.386719 15.640625 15.46875 C 15.457031 15.550781 15.265625 15.589844 15.066406 15.589844 C 14.867188 15.589844 14.675781 15.550781 14.488281 15.46875 C 14.304688 15.386719 14.144531 15.273438 14.003906 15.121094 C 13.863281 14.972656 13.753906 14.800781 13.675781 14.605469 C 13.601562 14.410156 13.5625 14.207031 13.5625 13.996094 C 13.5625 13.785156 13.601562 13.582031 13.675781 13.386719 C 13.753906 13.191406 13.863281 13.015625 14.003906 12.867188 C 14.144531 12.71875 14.304688 12.601562 14.488281 12.523438 C 14.675781 12.441406 14.867188 12.402344 15.066406 12.402344 C 15.265625 12.402344 15.457031 12.441406 15.640625 12.523438 C 15.824219 12.601562 15.988281 12.71875 16.128906 12.867188 C 16.269531 13.015625 16.378906 13.191406 16.453125 13.386719 C 16.53125 13.582031 16.566406 13.785156 16.566406 13.996094 Z M 16.566406 13.996094 " fill-opacity="1" fill-rule="nonzero"/><path fill="#7289da" d="M 21.851562 13.996094 C 21.851562 14.207031 21.8125 14.410156 21.738281 14.605469 C 21.660156 14.800781 21.550781 14.972656 21.410156 15.121094 C 21.269531 15.273438 21.109375 15.386719 20.921875 15.46875 C 20.738281 15.550781 20.546875 15.589844 20.347656 15.589844 C 20.148438 15.589844 19.957031 15.550781 19.773438 15.46875 C 19.589844 15.386719 19.425781 15.273438 19.285156 15.121094 C 19.144531 14.972656 19.035156 14.800781 18.960938 14.605469 C 18.882812 14.410156 18.84375 14.207031 18.84375 13.996094 C 18.84375 13.785156 18.882812 13.582031 18.960938 13.386719 C 19.035156 13.191406 19.144531 13.015625 19.285156 12.867188 C 19.425781 12.71875 19.589844 12.601562 19.773438 12.523438 C 19.957031 12.441406 20.148438 12.402344 20.347656 12.402344 C 20.546875 12.402344 20.738281 12.441406 20.921875 12.523438 C 21.109375 12.601562 21.269531 12.71875 21.410156 12.867188 C 21.550781 13.015625 21.660156 13.191406 21.738281 13.386719 C 21.8125 13.582031 21.851562 13.785156 21.851562 13.996094 Z M 21.851562 13.996094 " fill-opacity="1" fill-rule="nonzero"/><g fill="#ffffff" fill-opacity="1"><g transform="translate(29.801493, 17.32008)"><g><path d="M 3.140625 -3.03125 L 3.140625 0 L 0.90625 0 L 0.90625 -8.328125 L 3.625 -8.328125 C 5.882812 -8.328125 7.015625 -7.503906 7.015625 -5.859375 C 7.015625 -4.898438 6.546875 -4.15625 5.609375 -3.625 L 8.03125 0 L 5.484375 0 L 3.71875 -3.03125 Z M 3.140625 -4.71875 L 3.5625 -4.71875 C 4.351562 -4.71875 4.75 -5.066406 4.75 -5.765625 C 4.75 -6.335938 4.363281 -6.625 3.59375 -6.625 L 3.140625 -6.625 Z M 3.140625 -4.71875 "/></g></g></g><g fill="#ffffff" fill-opacity="1"><g transform="translate(38.380091, 17.32008)"><g><path d="M 0.90625 0 L 0.90625 -8.328125 L 3.15625 -8.328125 L 3.15625 0 Z M 0.90625 0 "/></g></g></g><g fill="#ffffff" fill-opacity="1"><g transform="translate(43.12721, 17.32008)"><g><path d="M 4.609375 -6.59375 C 4.066406 -6.59375 3.644531 -6.375 3.34375 -5.9375 C 3.050781 -5.5 2.90625 -4.894531 2.90625 -4.125 C 2.90625 -2.519531 3.515625 -1.71875 4.734375 -1.71875 C 5.097656 -1.71875 5.453125 -1.769531 5.796875 -1.875 C 6.140625 -1.976562 6.488281 -2.101562 6.84375 -2.25 L 6.84375 -0.34375 C 6.144531 -0.0390625 5.359375 0.109375 4.484375 0.109375 C 3.222656 0.109375 2.257812 -0.253906 1.59375 -0.984375 C 0.925781 -1.710938 0.59375 -2.765625 0.59375 -4.140625 C 0.59375 -5.003906 0.753906 -5.757812 1.078125 -6.40625 C 1.398438 -7.0625 1.863281 -7.5625 2.46875 -7.90625 C 3.082031 -8.257812 3.800781 -8.4375 4.625 -8.4375 C 5.519531 -8.4375 6.378906 -8.242188 7.203125 -7.859375 L 6.515625 -6.078125 C 6.210938 -6.222656 5.90625 -6.34375 5.59375 -6.4375 C 5.289062 -6.539062 4.960938 -6.59375 4.609375 -6.59375 Z M 4.609375 -6.59375 "/></g></g></g><g fill="#ffffff" fill-opacity="1"><g transform="translate(51.381299, 17.32008)"><g><path d="M 6 0 L 5.59375 -1.5625 L 2.890625 -1.5625 L 2.46875 0 L 0 0 L 2.71875 -8.359375 L 5.71875 -8.359375 L 8.46875 0 Z M 5.125 -3.40625 L 4.765625 -4.765625 C 4.679688 -5.066406 4.578125 -5.457031 4.453125 -5.9375 C 4.335938 -6.425781 4.265625 -6.773438 4.234375 -6.984375 C 4.191406 -6.785156 4.117188 -6.460938 4.015625 -6.015625 C 3.921875 -5.578125 3.703125 -4.707031 3.359375 -3.40625 Z M 5.125 -3.40625 "/></g></g></g><g fill="#ffffff" fill-opacity="1"><g transform="translate(60.534904, 17.32008)"><g><path d="M 3.140625 -3.03125 L 3.140625 0 L 0.90625 0 L 0.90625 -8.328125 L 3.625 -8.328125 C 5.882812 -8.328125 7.015625 -7.503906 7.015625 -5.859375 C 7.015625 -4.898438 6.546875 -4.15625 5.609375 -3.625 L 8.03125 0 L 5.484375 0 L 3.71875 -3.03125 Z M 3.140625 -4.71875 L 3.5625 -4.71875 C 4.351562 -4.71875 4.75 -5.066406 4.75 -5.765625 C 4.75 -6.335938 4.363281 -6.625 3.59375 -6.625 L 3.140625 -6.625 Z M 3.140625 -4.71875 "/></g></g></g><g fill="#ffffff" fill-opacity="1"><g transform="translate(69.113503, 17.32008)"><g><path d="M 4.5625 0 L 2.328125 0 L 2.328125 -6.484375 L 0.296875 -6.484375 L 0.296875 -8.328125 L 6.59375 -8.328125 L 6.59375 -6.484375 L 4.5625 -6.484375 Z M 4.5625 0 "/></g></g></g><g fill="#ffffff" fill-opacity="1"><g transform="translate(76.69011, 17.32008)"><g><path d="M 5.9375 -4.625 L 5.765625 -3.671875 L 7.140625 -3.671875 L 7.140625 -2.21875 L 5.5 -2.21875 L 5.078125 0 L 3.546875 0 L 3.96875 -2.21875 L 3 -2.21875 L 2.59375 0 L 1.078125 0 L 1.484375 -2.21875 L 0.203125 -2.21875 L 0.203125 -3.671875 L 1.765625 -3.671875 L 1.953125 -4.625 L 0.59375 -4.625 L 0.59375 -6.109375 L 2.21875 -6.109375 L 2.640625 -8.328125 L 4.15625 -8.328125 L 3.734375 -6.109375 L 4.6875 -6.109375 L 5.09375 -8.328125 L 6.625 -8.328125 L 6.203125 -6.109375 L 7.5 -6.109375 L 7.5 -4.625 Z M 3.296875 -3.671875 L 4.234375 -3.671875 L 4.40625 -4.625 L 3.453125 -4.625 Z M 3.296875 -3.671875 "/></g></g></g><g fill="#ffffff" fill-opacity="1"><g transform="translate(85.097914, 17.32008)"><g><path d="M 1.1875 0 L 4.046875 -6.453125 L 0.4375 -6.453125 L 0.4375 -8.3125 L 6.453125 -8.3125 L 6.453125 -6.984375 L 3.515625 0 Z M 1.1875 0 "/></g></g></g><g fill="#ffffff" fill-opacity="1"><g transform="translate(92.617589, 17.32008)"><g><path d="M 3.4375 -8.4375 C 4.3125 -8.4375 4.992188 -8.257812 5.484375 -7.90625 C 5.972656 -7.550781 6.21875 -7.050781 6.21875 -6.40625 C 6.21875 -5.96875 6.101562 -5.582031 5.875 -5.25 C 5.644531 -4.914062 5.28125 -4.625 4.78125 -4.375 C 5.394531 -4.03125 5.828125 -3.679688 6.078125 -3.328125 C 6.328125 -2.984375 6.453125 -2.613281 6.453125 -2.21875 C 6.453125 -1.476562 6.1875 -0.90625 5.65625 -0.5 C 5.125 -0.09375 4.378906 0.109375 3.421875 0.109375 C 2.441406 0.109375 1.691406 -0.0859375 1.171875 -0.484375 C 0.648438 -0.878906 0.390625 -1.445312 0.390625 -2.1875 C 0.390625 -2.675781 0.503906 -3.085938 0.734375 -3.421875 C 0.960938 -3.765625 1.351562 -4.070312 1.90625 -4.34375 C 1.457031 -4.644531 1.128906 -4.960938 0.921875 -5.296875 C 0.722656 -5.640625 0.625 -6.015625 0.625 -6.421875 C 0.625 -7.054688 0.875 -7.550781 1.375 -7.90625 C 1.875 -8.257812 2.5625 -8.4375 3.4375 -8.4375 Z M 2.453125 -2.28125 C 2.453125 -2.039062 2.535156 -1.847656 2.703125 -1.703125 C 2.867188 -1.566406 3.097656 -1.5 3.390625 -1.5 C 4.054688 -1.5 4.390625 -1.742188 4.390625 -2.234375 C 4.390625 -2.421875 4.316406 -2.601562 4.171875 -2.78125 C 4.023438 -2.96875 3.765625 -3.171875 3.390625 -3.390625 C 3.054688 -3.210938 2.816406 -3.03125 2.671875 -2.84375 C 2.523438 -2.664062 2.453125 -2.476562 2.453125 -2.28125 Z M 3.421875 -6.8125 C 3.234375 -6.8125 3.070312 -6.753906 2.9375 -6.640625 C 2.800781 -6.535156 2.734375 -6.394531 2.734375 -6.21875 C 2.734375 -5.882812 2.957031 -5.59375 3.40625 -5.34375 C 3.675781 -5.5 3.859375 -5.640625 3.953125 -5.765625 C 4.054688 -5.898438 4.109375 -6.050781 4.109375 -6.21875 C 4.109375 -6.394531 4.039062 -6.535156 3.90625 -6.640625 C 3.769531 -6.753906 3.609375 -6.8125 3.421875 -6.8125 Z M 3.421875 -6.8125 "/></g></g></g><g fill="#ffffff" fill-opacity="1"><g transform="translate(100.137265, 17.32008)"><g><path d="M 6.65625 -1.609375 L 5.734375 -1.609375 L 5.734375 0 L 3.515625 0 L 3.515625 -1.609375 L 0.203125 -1.609375 L 0.203125 -3.265625 L 3.65625 -8.328125 L 5.734375 -8.328125 L 5.734375 -3.296875 L 6.65625 -3.296875 Z M 3.515625 -3.296875 L 3.515625 -4.25 C 3.515625 -4.4375 3.519531 -4.679688 3.53125 -4.984375 C 3.550781 -5.296875 3.5625 -5.460938 3.5625 -5.484375 L 3.5 -5.484375 C 3.375 -5.191406 3.226562 -4.914062 3.0625 -4.65625 L 2.140625 -3.296875 Z M 3.515625 -3.296875 "/></g></g></g><g fill="#ffffff" fill-opacity="1"><g transform="translate(107.65694, 17.32008)"><g><path d="M 3.4375 -8.4375 C 4.3125 -8.4375 4.992188 -8.257812 5.484375 -7.90625 C 5.972656 -7.550781 6.21875 -7.050781 6.21875 -6.40625 C 6.21875 -5.96875 6.101562 -5.582031 5.875 -5.25 C 5.644531 -4.914062 5.28125 -4.625 4.78125 -4.375 C 5.394531 -4.03125 5.828125 -3.679688 6.078125 -3.328125 C 6.328125 -2.984375 6.453125 -2.613281 6.453125 -2.21875 C 6.453125 -1.476562 6.1875 -0.90625 5.65625 -0.5 C 5.125 -0.09375 4.378906 0.109375 3.421875 0.109375 C 2.441406 0.109375 1.691406 -0.0859375 1.171875 -0.484375 C 0.648438 -0.878906 0.390625 -1.445312 0.390625 -2.1875 C 0.390625 -2.675781 0.503906 -3.085938 0.734375 -3.421875 C 0.960938 -3.765625 1.351562 -4.070312 1.90625 -4.34375 C 1.457031 -4.644531 1.128906 -4.960938 0.921875 -5.296875 C 0.722656 -5.640625 0.625 -6.015625 0.625 -6.421875 C 0.625 -7.054688 0.875 -7.550781 1.375 -7.90625 C 1.875 -8.257812 2.5625 -8.4375 3.4375 -8.4375 Z M 2.453125 -2.28125 C 2.453125 -2.039062 2.535156 -1.847656 2.703125 -1.703125 C 2.867188 -1.566406 3.097656 -1.5 3.390625 -1.5 C 4.054688 -1.5 4.390625 -1.742188 4.390625 -2.234375 C 4.390625 -2.421875 4.316406 -2.601562 4.171875 -2.78125 C 4.023438 -2.96875 3.765625 -3.171875 3.390625 -3.390625 C 3.054688 -3.210938 2.816406 -3.03125 2.671875 -2.84375 C 2.523438 -2.664062 2.453125 -2.476562 2.453125 -2.28125 Z M 3.421875 -6.8125 C 3.234375 -6.8125 3.070312 -6.753906 2.9375 -6.640625 C 2.800781 -6.535156 2.734375 -6.394531 2.734375 -6.21875 C 2.734375 -5.882812 2.957031 -5.59375 3.40625 -5.34375 C 3.675781 -5.5 3.859375 -5.640625 3.953125 -5.765625 C 4.054688 -5.898438 4.109375 -6.050781 4.109375 -6.21875 C 4.109375 -6.394531 4.039062 -6.535156 3.90625 -6.640625 C 3.769531 -6.753906 3.609375 -6.8125 3.421875 -6.8125 Z M 3.421875 -6.8125 "/></g></g></g></svg>